<mxfile host="app.diagrams.net" modified="2023-10-13T08:28:08.785Z" agent="Mozilla/5.0 (Windows NT 10.0; Win64; x64) AppleWebKit/537.36 (KHTML, like Gecko) Chrome/117.0.0.0 Safari/537.36" etag="55T4HNyB5x7PMEKhfbGZ" version="22.0.4" type="github">
  <diagram name="Page-1" id="C910LVIDJ0md02ouHxa8">
    <mxGraphModel dx="1485" dy="813" grid="1" gridSize="10" guides="1" tooltips="1" connect="1" arrows="1" fold="1" page="1" pageScale="1" pageWidth="980" pageHeight="1390" math="0" shadow="0">
      <root>
        <mxCell id="0" />
        <mxCell id="1" parent="0" />
        <mxCell id="XfMeFXV819GEviEhM3NZ-5" value="" style="edgeStyle=orthogonalEdgeStyle;rounded=0;orthogonalLoop=1;jettySize=auto;html=1;" edge="1" parent="1" source="XfMeFXV819GEviEhM3NZ-1" target="XfMeFXV819GEviEhM3NZ-4">
          <mxGeometry relative="1" as="geometry" />
        </mxCell>
        <mxCell id="XfMeFXV819GEviEhM3NZ-1" value="&lt;font style=&quot;font-size: 15px;&quot;&gt;Assign call&lt;/font&gt;" style="rounded=0;whiteSpace=wrap;html=1;" vertex="1" parent="1">
          <mxGeometry x="250" y="150" width="120" height="60" as="geometry" />
        </mxCell>
        <mxCell id="XfMeFXV819GEviEhM3NZ-7" value="" style="edgeStyle=orthogonalEdgeStyle;rounded=0;orthogonalLoop=1;jettySize=auto;html=1;" edge="1" parent="1" source="XfMeFXV819GEviEhM3NZ-4" target="XfMeFXV819GEviEhM3NZ-6">
          <mxGeometry relative="1" as="geometry" />
        </mxCell>
        <mxCell id="XfMeFXV819GEviEhM3NZ-9" value="Yes" style="edgeLabel;html=1;align=center;verticalAlign=middle;resizable=0;points=[];" vertex="1" connectable="0" parent="XfMeFXV819GEviEhM3NZ-7">
          <mxGeometry x="-0.1225" relative="1" as="geometry">
            <mxPoint as="offset" />
          </mxGeometry>
        </mxCell>
        <mxCell id="XfMeFXV819GEviEhM3NZ-18" value="" style="edgeStyle=orthogonalEdgeStyle;rounded=0;orthogonalLoop=1;jettySize=auto;html=1;" edge="1" parent="1" source="XfMeFXV819GEviEhM3NZ-4" target="XfMeFXV819GEviEhM3NZ-17">
          <mxGeometry relative="1" as="geometry" />
        </mxCell>
        <mxCell id="XfMeFXV819GEviEhM3NZ-20" value="No" style="edgeLabel;html=1;align=center;verticalAlign=middle;resizable=0;points=[];" vertex="1" connectable="0" parent="XfMeFXV819GEviEhM3NZ-18">
          <mxGeometry x="-0.175" y="-1" relative="1" as="geometry">
            <mxPoint as="offset" />
          </mxGeometry>
        </mxCell>
        <mxCell id="XfMeFXV819GEviEhM3NZ-4" value="&lt;font style=&quot;font-size: 15px;&quot;&gt;Any order &lt;br&gt;selected?&lt;/font&gt;" style="rhombus;whiteSpace=wrap;html=1;rounded=0;" vertex="1" parent="1">
          <mxGeometry x="240" y="250" width="140" height="130" as="geometry" />
        </mxCell>
        <mxCell id="XfMeFXV819GEviEhM3NZ-15" value="" style="edgeStyle=orthogonalEdgeStyle;rounded=0;orthogonalLoop=1;jettySize=auto;html=1;" edge="1" parent="1" source="XfMeFXV819GEviEhM3NZ-6" target="XfMeFXV819GEviEhM3NZ-14">
          <mxGeometry relative="1" as="geometry" />
        </mxCell>
        <mxCell id="XfMeFXV819GEviEhM3NZ-16" value="Modal Pops up" style="edgeLabel;html=1;align=center;verticalAlign=middle;resizable=0;points=[];" vertex="1" connectable="0" parent="XfMeFXV819GEviEhM3NZ-15">
          <mxGeometry x="-0.2242" y="-1" relative="1" as="geometry">
            <mxPoint x="1" y="7" as="offset" />
          </mxGeometry>
        </mxCell>
        <mxCell id="XfMeFXV819GEviEhM3NZ-6" value="&lt;font style=&quot;font-size: 10px;&quot;&gt;Click on Button&lt;br&gt;&lt;/font&gt;&lt;font style=&quot;font-size: 15px;&quot;&gt;Assign Call&lt;/font&gt;" style="whiteSpace=wrap;html=1;rounded=0;" vertex="1" parent="1">
          <mxGeometry x="250" y="460" width="120" height="60" as="geometry" />
        </mxCell>
        <mxCell id="XfMeFXV819GEviEhM3NZ-25" style="edgeStyle=orthogonalEdgeStyle;rounded=0;orthogonalLoop=1;jettySize=auto;html=1;entryX=1;entryY=0.5;entryDx=0;entryDy=0;" edge="1" parent="1" source="XfMeFXV819GEviEhM3NZ-10" target="XfMeFXV819GEviEhM3NZ-6">
          <mxGeometry relative="1" as="geometry">
            <Array as="points">
              <mxPoint x="680" y="490" />
            </Array>
          </mxGeometry>
        </mxCell>
        <mxCell id="XfMeFXV819GEviEhM3NZ-10" value="&lt;font style=&quot;font-size: 14px;&quot;&gt;Select the Order &lt;br&gt;&lt;/font&gt;&lt;font style=&quot;font-size: 10px;&quot;&gt;from the List of Orders&lt;/font&gt;" style="whiteSpace=wrap;html=1;rounded=0;align=center;" vertex="1" parent="1">
          <mxGeometry x="620" y="285" width="120" height="60" as="geometry" />
        </mxCell>
        <mxCell id="XfMeFXV819GEviEhM3NZ-22" value="" style="edgeStyle=orthogonalEdgeStyle;rounded=0;orthogonalLoop=1;jettySize=auto;html=1;" edge="1" parent="1" source="XfMeFXV819GEviEhM3NZ-14" target="XfMeFXV819GEviEhM3NZ-21">
          <mxGeometry relative="1" as="geometry" />
        </mxCell>
        <mxCell id="XfMeFXV819GEviEhM3NZ-14" value="&lt;font style=&quot;font-size: 15px;&quot;&gt;Select the Assignee&amp;nbsp;&lt;/font&gt;" style="whiteSpace=wrap;html=1;rounded=0;" vertex="1" parent="1">
          <mxGeometry x="250" y="580" width="120" height="60" as="geometry" />
        </mxCell>
        <mxCell id="XfMeFXV819GEviEhM3NZ-19" style="edgeStyle=orthogonalEdgeStyle;rounded=0;orthogonalLoop=1;jettySize=auto;html=1;" edge="1" parent="1" source="XfMeFXV819GEviEhM3NZ-17" target="XfMeFXV819GEviEhM3NZ-10">
          <mxGeometry relative="1" as="geometry" />
        </mxCell>
        <mxCell id="XfMeFXV819GEviEhM3NZ-17" value="Alert Message&lt;br&gt;&lt;div style=&quot;&quot;&gt;&lt;span style=&quot;font-size: 10px; background-color: initial;&quot;&gt;Please select atleast 1 order to assing calls!&lt;/span&gt;&lt;/div&gt;" style="whiteSpace=wrap;html=1;rounded=0;dashed=1;dashPattern=8 8;" vertex="1" parent="1">
          <mxGeometry x="460" y="285" width="120" height="60" as="geometry" />
        </mxCell>
        <mxCell id="XfMeFXV819GEviEhM3NZ-24" value="" style="edgeStyle=orthogonalEdgeStyle;rounded=0;orthogonalLoop=1;jettySize=auto;html=1;" edge="1" parent="1" source="XfMeFXV819GEviEhM3NZ-21" target="XfMeFXV819GEviEhM3NZ-23">
          <mxGeometry relative="1" as="geometry" />
        </mxCell>
        <mxCell id="XfMeFXV819GEviEhM3NZ-21" value="&lt;font style=&quot;font-size: 15px;&quot;&gt;Save&lt;/font&gt;" style="whiteSpace=wrap;html=1;rounded=0;" vertex="1" parent="1">
          <mxGeometry x="250" y="675" width="120" height="60" as="geometry" />
        </mxCell>
        <mxCell id="XfMeFXV819GEviEhM3NZ-23" value="&lt;span style=&quot;font-size: 15px;&quot;&gt;Alert! &lt;/span&gt;&lt;font style=&quot;font-size: 13px;&quot;&gt;Confirmation of Call Assigned.&lt;/font&gt;" style="whiteSpace=wrap;html=1;rounded=0;dashed=1;dashPattern=8 8;" vertex="1" parent="1">
          <mxGeometry x="250" y="780" width="120" height="60" as="geometry" />
        </mxCell>
      </root>
    </mxGraphModel>
  </diagram>
</mxfile>
